M48
; DRILL file {KiCad 9.0.4} date 2026-01-27T11:33:11+0530
; FORMAT={-:-/ absolute / metric / decimal}
; #@! TF.CreationDate,2026-01-27T11:33:11+05:30
; #@! TF.GenerationSoftware,Kicad,Pcbnew,9.0.4
; #@! TF.FileFunction,Plated,1,2,PTH
FMAT,2
METRIC
; #@! TA.AperFunction,Plated,PTH,ComponentDrill
T1C1.000
%
G90
G05
T1
X141.42Y-83.5
X141.46Y-87.5
X141.46Y-91.36
X141.46Y-95.0
X141.88Y-100.0
X141.92Y-104.0
X141.96Y-108.0
X141.96Y-112.0
X142.0Y-116.0
X143.96Y-83.5
X144.0Y-87.5
X144.0Y-91.36
X144.0Y-95.0
X144.42Y-100.0
X144.46Y-104.0
X144.5Y-108.0
X144.5Y-112.0
X144.54Y-116.0
X146.5Y-83.5
X146.54Y-87.5
X146.54Y-91.36
X146.54Y-95.0
X146.96Y-100.0
X147.0Y-104.0
X147.04Y-108.0
X147.04Y-112.0
X152.69Y-78.43
X152.69Y-80.97
X152.69Y-83.51
X152.69Y-86.05
X152.69Y-88.59
X152.69Y-91.13
X152.69Y-93.67
X152.69Y-96.21
X152.69Y-98.75
X152.69Y-101.29
X152.69Y-103.83
X152.69Y-106.37
X152.69Y-108.91
X152.69Y-111.45
X152.69Y-113.99
X178.0Y-78.48
X178.0Y-81.02
X178.0Y-83.56
X178.0Y-86.1
X178.0Y-88.64
X178.0Y-91.18
X178.0Y-93.72
X178.0Y-96.26
X178.0Y-98.8
X178.0Y-101.34
X178.0Y-103.88
X178.0Y-106.42
X178.0Y-108.96
X178.0Y-111.5
X178.0Y-114.04
M30
